<mxfile host="app.diagrams.net" agent="Mozilla/5.0 (X11; Ubuntu; Linux x86_64; rv:130.0) Gecko/20100101 Firefox/130.0" version="26.0.11">
  <diagram name="Page-1" id="NtRInAmk1aR9rPnv3w39">
    <mxGraphModel dx="2389" dy="833" grid="1" gridSize="10" guides="1" tooltips="1" connect="1" arrows="1" fold="1" page="1" pageScale="1" pageWidth="827" pageHeight="1169" math="0" shadow="0">
      <root>
        <mxCell id="0" />
        <mxCell id="1" parent="0" />
        <mxCell id="ek2Kx4IxuASS3qcadk8D-7" value="" style="rounded=0;whiteSpace=wrap;html=1;align=center;fillColor=#dae8fc;strokeColor=#6c8ebf;" vertex="1" parent="1">
          <mxGeometry x="190" y="470" width="400" height="230" as="geometry" />
        </mxCell>
        <mxCell id="ek2Kx4IxuASS3qcadk8D-18" style="edgeStyle=orthogonalEdgeStyle;rounded=1;orthogonalLoop=1;jettySize=auto;html=1;exitX=0.5;exitY=0;exitDx=0;exitDy=0;entryX=0.5;entryY=1;entryDx=0;entryDy=0;" edge="1" parent="1" source="ek2Kx4IxuASS3qcadk8D-6" target="ek2Kx4IxuASS3qcadk8D-12">
          <mxGeometry relative="1" as="geometry" />
        </mxCell>
        <mxCell id="ek2Kx4IxuASS3qcadk8D-62" style="edgeStyle=orthogonalEdgeStyle;rounded=1;orthogonalLoop=1;jettySize=auto;html=1;exitX=0.5;exitY=0;exitDx=0;exitDy=0;entryX=0.5;entryY=0;entryDx=0;entryDy=0;" edge="1" parent="1" source="ek2Kx4IxuASS3qcadk8D-6" target="ek2Kx4IxuASS3qcadk8D-34">
          <mxGeometry relative="1" as="geometry">
            <Array as="points">
              <mxPoint x="200" y="585" />
              <mxPoint x="200" y="510" />
              <mxPoint x="294" y="510" />
            </Array>
          </mxGeometry>
        </mxCell>
        <mxCell id="ek2Kx4IxuASS3qcadk8D-6" value="&lt;h1&gt;Encoder&lt;/h1&gt;" style="shape=trapezoid;perimeter=trapezoidPerimeter;whiteSpace=wrap;html=1;fixedSize=1;rotation=90;fillColor=#ffe6cc;strokeColor=#d79b00;" vertex="1" parent="1">
          <mxGeometry x="-10" y="526" width="220" height="118" as="geometry" />
        </mxCell>
        <mxCell id="ek2Kx4IxuASS3qcadk8D-41" style="edgeStyle=orthogonalEdgeStyle;rounded=1;orthogonalLoop=1;jettySize=auto;html=1;exitX=0.5;exitY=1;exitDx=0;exitDy=0;entryX=0;entryY=0.5;entryDx=0;entryDy=0;" edge="1" parent="1" source="ek2Kx4IxuASS3qcadk8D-8" target="ek2Kx4IxuASS3qcadk8D-23">
          <mxGeometry relative="1" as="geometry" />
        </mxCell>
        <mxCell id="ek2Kx4IxuASS3qcadk8D-8" value="&lt;h1&gt;Decoder&lt;/h1&gt;" style="shape=trapezoid;perimeter=trapezoidPerimeter;whiteSpace=wrap;html=1;fixedSize=1;rotation=-90;fillColor=#ffe6cc;strokeColor=#d79b00;" vertex="1" parent="1">
          <mxGeometry x="575" y="526" width="220" height="118" as="geometry" />
        </mxCell>
        <mxCell id="ek2Kx4IxuASS3qcadk8D-10" value="&lt;h1&gt;Discriminator&lt;/h1&gt;" style="shape=trapezoid;perimeter=trapezoidPerimeter;whiteSpace=wrap;html=1;fixedSize=1;rotation=90;fillColor=#fff2cc;strokeColor=#d6b656;" vertex="1" parent="1">
          <mxGeometry x="800" y="785" width="220" height="68" as="geometry" />
        </mxCell>
        <mxCell id="ek2Kx4IxuASS3qcadk8D-46" style="edgeStyle=orthogonalEdgeStyle;rounded=1;orthogonalLoop=1;jettySize=auto;html=1;exitX=0.5;exitY=0;exitDx=0;exitDy=0;entryX=0;entryY=0;entryDx=0;entryDy=0;" edge="1" parent="1" source="ek2Kx4IxuASS3qcadk8D-12" target="ek2Kx4IxuASS3qcadk8D-34">
          <mxGeometry relative="1" as="geometry" />
        </mxCell>
        <mxCell id="ek2Kx4IxuASS3qcadk8D-57" style="edgeStyle=orthogonalEdgeStyle;rounded=1;orthogonalLoop=1;jettySize=auto;html=1;exitX=0.5;exitY=0;exitDx=0;exitDy=0;entryX=0;entryY=0.5;entryDx=0;entryDy=0;" edge="1" parent="1" source="ek2Kx4IxuASS3qcadk8D-12" target="ek2Kx4IxuASS3qcadk8D-49">
          <mxGeometry relative="1" as="geometry">
            <Array as="points">
              <mxPoint x="280" y="585" />
              <mxPoint x="280" y="671" />
            </Array>
          </mxGeometry>
        </mxCell>
        <mxCell id="ek2Kx4IxuASS3qcadk8D-70" style="edgeStyle=orthogonalEdgeStyle;rounded=1;orthogonalLoop=1;jettySize=auto;html=1;exitX=0.5;exitY=0;exitDx=0;exitDy=0;" edge="1" parent="1" source="ek2Kx4IxuASS3qcadk8D-12" target="ek2Kx4IxuASS3qcadk8D-66">
          <mxGeometry relative="1" as="geometry" />
        </mxCell>
        <mxCell id="ek2Kx4IxuASS3qcadk8D-12" value="&lt;h2&gt;VQ1&lt;/h2&gt;" style="rounded=0;whiteSpace=wrap;html=1;rotation=90;fillColor=#1ba1e2;strokeColor=#006EAF;fontColor=#ffffff;" vertex="1" parent="1">
          <mxGeometry x="176" y="567.5" width="120" height="35" as="geometry" />
        </mxCell>
        <mxCell id="ek2Kx4IxuASS3qcadk8D-53" style="edgeStyle=orthogonalEdgeStyle;rounded=1;orthogonalLoop=1;jettySize=auto;html=1;exitX=0.5;exitY=0;exitDx=0;exitDy=0;entryX=0;entryY=0.5;entryDx=0;entryDy=0;" edge="1" parent="1" source="ek2Kx4IxuASS3qcadk8D-13" target="ek2Kx4IxuASS3qcadk8D-52">
          <mxGeometry relative="1" as="geometry" />
        </mxCell>
        <mxCell id="ek2Kx4IxuASS3qcadk8D-58" style="edgeStyle=orthogonalEdgeStyle;rounded=1;orthogonalLoop=1;jettySize=auto;html=1;exitX=0.5;exitY=0;exitDx=0;exitDy=0;entryX=0.5;entryY=0;entryDx=0;entryDy=0;" edge="1" parent="1" source="ek2Kx4IxuASS3qcadk8D-13" target="ek2Kx4IxuASS3qcadk8D-49">
          <mxGeometry relative="1" as="geometry">
            <Array as="points">
              <mxPoint x="403" y="585" />
            </Array>
          </mxGeometry>
        </mxCell>
        <mxCell id="ek2Kx4IxuASS3qcadk8D-13" value="&lt;h2&gt;VQ2&lt;/h2&gt;" style="rounded=0;whiteSpace=wrap;html=1;rotation=90;fillColor=#1ba1e2;fontColor=#ffffff;strokeColor=#006EAF;" vertex="1" parent="1">
          <mxGeometry x="296" y="567" width="120" height="35" as="geometry" />
        </mxCell>
        <mxCell id="ek2Kx4IxuASS3qcadk8D-60" style="edgeStyle=orthogonalEdgeStyle;rounded=1;orthogonalLoop=1;jettySize=auto;html=1;exitX=0.5;exitY=0;exitDx=0;exitDy=0;entryX=0.5;entryY=0;entryDx=0;entryDy=0;" edge="1" parent="1" source="ek2Kx4IxuASS3qcadk8D-14" target="ek2Kx4IxuASS3qcadk8D-59">
          <mxGeometry relative="1" as="geometry" />
        </mxCell>
        <mxCell id="ek2Kx4IxuASS3qcadk8D-14" value="&lt;h2&gt;VQ8&lt;/h2&gt;" style="rounded=0;whiteSpace=wrap;html=1;rotation=90;fillColor=#1ba1e2;fontColor=#ffffff;strokeColor=#006EAF;" vertex="1" parent="1">
          <mxGeometry x="455" y="567.5" width="120" height="35" as="geometry" />
        </mxCell>
        <mxCell id="ek2Kx4IxuASS3qcadk8D-67" style="edgeStyle=orthogonalEdgeStyle;rounded=1;orthogonalLoop=1;jettySize=auto;html=1;exitX=0.5;exitY=0;exitDx=0;exitDy=0;entryX=0.5;entryY=1;entryDx=0;entryDy=0;" edge="1" parent="1" source="ek2Kx4IxuASS3qcadk8D-15" target="ek2Kx4IxuASS3qcadk8D-66">
          <mxGeometry relative="1" as="geometry" />
        </mxCell>
        <mxCell id="ek2Kx4IxuASS3qcadk8D-15" value="&lt;h1&gt;mHuBERT&lt;/h1&gt;" style="shape=trapezoid;perimeter=trapezoidPerimeter;whiteSpace=wrap;html=1;fixedSize=1;rotation=90;fillColor=#fff2cc;strokeColor=#d6b656;" vertex="1" parent="1">
          <mxGeometry x="60" y="780" width="190" height="78" as="geometry" />
        </mxCell>
        <mxCell id="ek2Kx4IxuASS3qcadk8D-16" value="&lt;h1&gt;Lombard Embedder&lt;br&gt;&lt;/h1&gt;" style="shape=trapezoid;perimeter=trapezoidPerimeter;whiteSpace=wrap;html=1;fixedSize=1;rotation=90;fillColor=#fff2cc;strokeColor=#d6b656;" vertex="1" parent="1">
          <mxGeometry x="285" y="785" width="170" height="68" as="geometry" />
        </mxCell>
        <mxCell id="ek2Kx4IxuASS3qcadk8D-27" style="edgeStyle=orthogonalEdgeStyle;rounded=1;orthogonalLoop=1;jettySize=auto;html=1;exitX=1;exitY=0.5;exitDx=0;exitDy=0;entryX=0.5;entryY=1;entryDx=0;entryDy=0;" edge="1" parent="1" source="ek2Kx4IxuASS3qcadk8D-22" target="ek2Kx4IxuASS3qcadk8D-6">
          <mxGeometry relative="1" as="geometry" />
        </mxCell>
        <mxCell id="ek2Kx4IxuASS3qcadk8D-28" style="edgeStyle=orthogonalEdgeStyle;rounded=1;orthogonalLoop=1;jettySize=auto;html=1;exitX=1;exitY=0.5;exitDx=0;exitDy=0;entryX=0.5;entryY=1;entryDx=0;entryDy=0;dashed=1;" edge="1" parent="1" source="ek2Kx4IxuASS3qcadk8D-22" target="ek2Kx4IxuASS3qcadk8D-15">
          <mxGeometry relative="1" as="geometry">
            <Array as="points">
              <mxPoint x="20" y="585" />
              <mxPoint x="20" y="819" />
            </Array>
          </mxGeometry>
        </mxCell>
        <mxCell id="ek2Kx4IxuASS3qcadk8D-29" style="edgeStyle=orthogonalEdgeStyle;rounded=1;orthogonalLoop=1;jettySize=auto;html=1;exitX=1;exitY=0.5;exitDx=0;exitDy=0;entryX=0.5;entryY=1;entryDx=0;entryDy=0;dashed=1;" edge="1" parent="1" source="ek2Kx4IxuASS3qcadk8D-22" target="ek2Kx4IxuASS3qcadk8D-16">
          <mxGeometry relative="1" as="geometry">
            <Array as="points">
              <mxPoint x="20" y="585" />
              <mxPoint x="20" y="950" />
              <mxPoint x="300" y="950" />
              <mxPoint x="300" y="819" />
            </Array>
          </mxGeometry>
        </mxCell>
        <mxCell id="ek2Kx4IxuASS3qcadk8D-43" style="edgeStyle=orthogonalEdgeStyle;rounded=1;orthogonalLoop=1;jettySize=auto;html=1;exitX=1;exitY=0.5;exitDx=0;exitDy=0;entryX=0.5;entryY=1;entryDx=0;entryDy=0;dashed=1;" edge="1" parent="1" source="ek2Kx4IxuASS3qcadk8D-22" target="ek2Kx4IxuASS3qcadk8D-10">
          <mxGeometry relative="1" as="geometry">
            <Array as="points">
              <mxPoint x="20" y="585" />
              <mxPoint x="20" y="950" />
              <mxPoint x="590" y="950" />
              <mxPoint x="590" y="819" />
            </Array>
          </mxGeometry>
        </mxCell>
        <mxCell id="ek2Kx4IxuASS3qcadk8D-22" value="" style="rounded=1;whiteSpace=wrap;html=1;fillColor=#d5e8d4;strokeColor=#82b366;" vertex="1" parent="1">
          <mxGeometry x="-50" y="442.5" width="40" height="285" as="geometry" />
        </mxCell>
        <mxCell id="ek2Kx4IxuASS3qcadk8D-42" style="edgeStyle=orthogonalEdgeStyle;rounded=1;orthogonalLoop=1;jettySize=auto;html=1;exitX=1;exitY=0.5;exitDx=0;exitDy=0;entryX=0.5;entryY=1;entryDx=0;entryDy=0;dashed=1;" edge="1" parent="1" source="ek2Kx4IxuASS3qcadk8D-23" target="ek2Kx4IxuASS3qcadk8D-10">
          <mxGeometry relative="1" as="geometry" />
        </mxCell>
        <mxCell id="ek2Kx4IxuASS3qcadk8D-23" value="" style="rounded=1;whiteSpace=wrap;html=1;fillColor=#f8cecc;strokeColor=#b85450;" vertex="1" parent="1">
          <mxGeometry x="787" y="442.5" width="40" height="285" as="geometry" />
        </mxCell>
        <mxCell id="ek2Kx4IxuASS3qcadk8D-47" style="edgeStyle=orthogonalEdgeStyle;rounded=1;orthogonalLoop=1;jettySize=auto;html=1;exitX=1;exitY=0.5;exitDx=0;exitDy=0;entryX=0.5;entryY=1;entryDx=0;entryDy=0;" edge="1" parent="1" source="ek2Kx4IxuASS3qcadk8D-34" target="ek2Kx4IxuASS3qcadk8D-13">
          <mxGeometry relative="1" as="geometry" />
        </mxCell>
        <mxCell id="ek2Kx4IxuASS3qcadk8D-63" style="edgeStyle=orthogonalEdgeStyle;rounded=1;orthogonalLoop=1;jettySize=auto;html=1;exitX=1;exitY=0.5;exitDx=0;exitDy=0;entryX=0.5;entryY=0;entryDx=0;entryDy=0;" edge="1" parent="1" source="ek2Kx4IxuASS3qcadk8D-34" target="ek2Kx4IxuASS3qcadk8D-52">
          <mxGeometry relative="1" as="geometry">
            <Array as="points">
              <mxPoint x="320" y="585" />
              <mxPoint x="320" y="510" />
              <mxPoint x="431" y="510" />
            </Array>
          </mxGeometry>
        </mxCell>
        <mxCell id="ek2Kx4IxuASS3qcadk8D-34" value="&lt;b&gt;&lt;font style=&quot;font-size: 21px;&quot;&gt;-&lt;/font&gt;&lt;/b&gt;" style="ellipse;whiteSpace=wrap;html=1;aspect=fixed;rounded=1;align=center;" vertex="1" parent="1">
          <mxGeometry x="283" y="574" width="22" height="22" as="geometry" />
        </mxCell>
        <mxCell id="ek2Kx4IxuASS3qcadk8D-39" value="&lt;b&gt;&lt;font style=&quot;font-size: 18px;&quot;&gt;Quantizer&lt;/font&gt;&lt;/b&gt;" style="text;html=1;align=center;verticalAlign=middle;whiteSpace=wrap;rounded=0;" vertex="1" parent="1">
          <mxGeometry x="325" y="470" width="130" height="30" as="geometry" />
        </mxCell>
        <mxCell id="ek2Kx4IxuASS3qcadk8D-61" style="edgeStyle=orthogonalEdgeStyle;rounded=1;orthogonalLoop=1;jettySize=auto;html=1;exitX=1;exitY=0.5;exitDx=0;exitDy=0;entryX=0;entryY=0.5;entryDx=0;entryDy=0;" edge="1" parent="1" source="ek2Kx4IxuASS3qcadk8D-49" target="ek2Kx4IxuASS3qcadk8D-59">
          <mxGeometry relative="1" as="geometry" />
        </mxCell>
        <mxCell id="ek2Kx4IxuASS3qcadk8D-49" value="&lt;b&gt;+&lt;/b&gt;" style="ellipse;whiteSpace=wrap;html=1;aspect=fixed;rounded=1;align=center;" vertex="1" parent="1">
          <mxGeometry x="392" y="660" width="22" height="22" as="geometry" />
        </mxCell>
        <mxCell id="ek2Kx4IxuASS3qcadk8D-52" value="&lt;b&gt;&lt;font style=&quot;font-size: 21px;&quot;&gt;-&lt;/font&gt;&lt;/b&gt;" style="ellipse;whiteSpace=wrap;html=1;aspect=fixed;rounded=1;align=center;" vertex="1" parent="1">
          <mxGeometry x="420" y="574" width="22" height="22" as="geometry" />
        </mxCell>
        <mxCell id="ek2Kx4IxuASS3qcadk8D-65" style="edgeStyle=orthogonalEdgeStyle;rounded=1;orthogonalLoop=1;jettySize=auto;html=1;exitX=1;exitY=0.5;exitDx=0;exitDy=0;curved=0;" edge="1" parent="1" source="ek2Kx4IxuASS3qcadk8D-59" target="ek2Kx4IxuASS3qcadk8D-8">
          <mxGeometry relative="1" as="geometry">
            <Array as="points">
              <mxPoint x="570" y="671" />
              <mxPoint x="570" y="585" />
            </Array>
          </mxGeometry>
        </mxCell>
        <mxCell id="ek2Kx4IxuASS3qcadk8D-59" value="&lt;b&gt;+&lt;/b&gt;" style="ellipse;whiteSpace=wrap;html=1;aspect=fixed;rounded=1;align=center;" vertex="1" parent="1">
          <mxGeometry x="540" y="660" width="22" height="22" as="geometry" />
        </mxCell>
        <mxCell id="ek2Kx4IxuASS3qcadk8D-66" value="&lt;div&gt;&lt;font style=&quot;font-size: 16px;&quot;&gt;Semantic&lt;/font&gt;&lt;/div&gt;&lt;div&gt;&lt;font style=&quot;font-size: 16px;&quot;&gt;&lt;font&gt;Distillation&lt;/font&gt;&lt;font&gt;&lt;br&gt;&lt;/font&gt;&lt;/font&gt;&lt;/div&gt;" style="text;html=1;align=center;verticalAlign=middle;whiteSpace=wrap;rounded=0;" vertex="1" parent="1">
          <mxGeometry x="237" y="720" width="86" height="30" as="geometry" />
        </mxCell>
      </root>
    </mxGraphModel>
  </diagram>
</mxfile>
